<?xml version="1.0" encoding="UTF-8" standalone="no" ?>
<!DOCTYPE svg PUBLIC "-//W3C//DTD SVG 1.1//EN" "http://www.w3.org/Graphics/SVG/1.1/DTD/svg11.dtd">
<svg xmlns="http://www.w3.org/2000/svg" xmlns:xlink="http://www.w3.org/1999/xlink" version="1.1" width="400" height="400" viewBox="0 0 400 400" xml:space="preserve">
<desc>Created with Fabric.js 3.6.2</desc>
<defs>
</defs>
<g transform="matrix(4.35 0 0 4.35 200 200)" id="Layer_1"  >
<path style="stroke: none; stroke-width: 1; stroke-dasharray: none; stroke-linecap: butt; stroke-dashoffset: 0; stroke-linejoin: miter; stroke-miterlimit: 4; fill: rgb(204,0,0); fill-rule: evenodd; opacity: 1;"  transform=" translate(-24.03, -23.99)" d="M 44.929 14.391 c -0.046 0.099 -0.102 0.194 -0.183 0.276 L 16.84 42.572 c -0.109 0.188 -0.26 0.352 -0.475 0.434 l -13.852 3.88 c -0.029 0.014 -0.062 0.016 -0.094 0.026 l -0.047 0.014 c -0.008 0.003 -0.017 0.001 -0.024 0.004 c -0.094 0.025 -0.187 0.046 -0.286 0.045 c -0.098 0.003 -0.189 -0.015 -0.282 -0.041 c -0.021 -0.006 -0.04 -0.002 -0.061 -0.009 c -0.008 -0.003 -0.013 -0.01 -0.021 -0.013 c -0.088 -0.033 -0.164 -0.083 -0.24 -0.141 c -0.039 -0.028 -0.08 -0.053 -0.113 -0.086 s -0.058 -0.074 -0.086 -0.113 c -0.058 -0.075 -0.107 -0.152 -0.141 -0.24 c -0.004 -0.008 -0.01 -0.013 -0.013 -0.021 c -0.007 -0.02 -0.003 -0.04 -0.009 -0.061 c -0.025 -0.092 -0.043 -0.184 -0.041 -0.281 c 0 -0.1 0.02 -0.193 0.045 -0.287 c 0.004 -0.008 0.001 -0.016 0.004 -0.023 l 0.014 -0.049 c 0.011 -0.03 0.013 -0.063 0.026 -0.093 l 3.88 -13.852 c 0.082 -0.216 0.246 -0.364 0.434 -0.475 l 27.479 -27.48 c 0.04 -0.045 0.087 -0.083 0.128 -0.127 l 0.299 -0.299 c 0.015 -0.015 0.034 -0.02 0.05 -0.034 C 34.858 1.87 36.796 1 38.953 1 C 43.397 1 47 4.603 47 9.047 C 47 11.108 46.205 12.969 44.929 14.391 z M 41.15 15.5 l -3.619 -3.619 L 13.891 35.522 c 0.004 0.008 0.014 0.011 0.018 0.019 l 2.373 4.827 L 41.15 15.5 z M 3.559 44.473 l 2.785 -0.779 l -2.006 -2.005 L 3.559 44.473 z M 4.943 39.53 l 3.558 3.559 l 6.12 -1.715 c 0 0 -2.586 -5.372 -2.59 -5.374 l -5.374 -2.59 L 4.943 39.53 z M 12.49 34.124 c 0.008 0.004 0.011 0.013 0.019 0.018 L 36.15 10.5 l -3.619 -3.619 L 7.663 31.749 L 12.49 34.124 z M 38.922 3 c -1.782 0 -3.372 0.776 -4.489 1.994 l -0.007 -0.007 L 33.912 5.5 l 8.619 8.619 l 0.527 -0.528 l -0.006 -0.006 c 1.209 -1.116 1.979 -2.701 1.979 -4.476 C 45.031 5.735 42.296 3 38.922 3 z" stroke-linecap="round" />
</g>
</svg>